<svg xmlns="http://www.w3.org/2000/svg" x="0px" y="0px" width="48" height="48" viewBox="0,0,300,150">
<g fill="none" fill-rule="nonzero" stroke="none" stroke-width="1" stroke-linecap="butt" stroke-linejoin="miter" stroke-miterlimit="10" stroke-dasharray="" stroke-dashoffset="0" font-family="none" font-weight="none" font-size="none" text-anchor="none" style="mix-blend-mode: normal"><g transform="scale(5.33333,5.33333)"><path d="M42,9.028c0,-1.129 0,-2.139 -1,-3.117c-4,-2.933 -10.019,-3.911 -17,-3.911c-6.981,0 -13,0.978 -17,3.911c-1,0.978 -1,1.988 -1,3.117l1,16.604c1,5.701 5,17.435 17.034,20.368c0,0 12.966,-2 16.966,-20.375z" fill="#d7d1c8"></path><path d="M21.594,17.094c-0.038,0.009 0.919,9.75 0.919,9.75l-2.2,-0.875l0.344,-8.312zM31.156,20.16c-1.018,-0.725 -3.031,-2.16 -0.688,-5.317c-1.866,0.339 -3.938,2.411 -3.938,4.375c0,2.209 1.791,4 4,4c0.213,0 0.421,-0.018 0.625,-0.051v-3.007z" fill="#c18833"></path><path d="M23.123,38.984c-5.583,-0.333 -7.083,-4.5 -7.083,-4.5l5.167,-0.333l2.333,-4.354c0,0 -2.327,1.188 -7.5,1.188c-5.193,0 -7.94,-5.568 -4.86,-9.377c0.913,0.944 2.11,1.612 3.227,1.612c0.213,0 0.421,-0.018 0.625,-0.051v-3.009c-0.543,-0.387 -0.725,-0.88 -0.781,-1.457c-0.937,-0.463 -1.587,-1.418 -1.587,-2.534c0,-0.997 0.517,-1.87 1.294,-2.375c0.009,-0.082 0.02,-0.161 0.041,-0.21c-1.006,0.183 -2.184,1 -3.059,2.02c0.019,-0.678 0.152,-1.127 0.152,-1.127c0,0 0.438,-5.758 1.028,-11.043c0,0 -4.8,1.35 -5.811,3.513c-0.137,0.296 -0.347,1.275 -0.26,2.902c0.253,4.681 0.765,12.664 0.99,15.767c0.127,1.762 0.757,3.249 1.045,4.158c4.54,14.355 15.95,16.226 15.95,16.226z" fill="#c18833"></path><path d="M32,12c-3.438,0 -5.195,3.074 -5.561,3.439c-0.586,0.586 -0.586,1.536 0,2.121c0.586,0.586 1.536,0.586 2.121,0c0.414,-0.41 1.753,-3.56 4.44,-3.56c1.387,0 3.047,0.64 5,2c-1.855,-3.123 -4.004,-4 -6,-4zM16,12c-1.996,0 -4.145,0.877 -6,4c1.953,-1.36 3.613,-2 5,-2c2.688,0 4.026,3.15 4.439,3.561c0.585,0.586 1.535,0.586 2.121,0c0.586,-0.585 0.586,-1.535 0,-2.121c-0.365,-0.366 -2.122,-3.44 -5.56,-3.44zM16,18.521c-1.64,0 -3.082,0.594 -4,1.5c0.918,0.906 2.36,1.5 4,1.5c1.64,0 3.082,-0.594 4,-1.5c-0.918,-0.906 -2.36,-1.5 -4,-1.5zM32,18.521c-1.64,0 -3.082,0.594 -4,1.5c0.918,0.906 2.36,1.5 4,1.5c1.64,0 3.082,-0.594 4,-1.5c-0.918,-0.906 -2.36,-1.5 -4,-1.5zM10,27l5,8h7l2,-2l2,2h7l5,-8l-6,6h-4l-3,-4h-2l-3,4h-4zM22,38v7.389c0.653,0.23 1.327,0.438 2.034,0.611c0,0 0.761,-0.12 1.966,-0.556v-7.444z" fill="#393939"></path></g></g>
</svg>